<?xml version="1.0" encoding="UTF-8"?>
<svg xmlns="http://www.w3.org/2000/svg" xmlns:xlink="http://www.w3.org/1999/xlink" width="1000px" height="200px" viewBox="0 0 1000 200" version="1.1">
<g id="surface1">
<path style=" stroke:none;fill-rule:nonzero;fill:rgb(0%,0%,0%);fill-opacity:1;" d="M 533.332031 40.246094 L 533.332031 159.742188 C 533.332031 160.933594 532.40625 161.894531 531.253906 161.894531 L 519.617188 161.894531 C 516.632812 161.894531 513.769531 160.671875 511.648438 158.492188 L 420.105469 64.273438 L 420.105469 159.753906 C 420.105469 160.945312 419.179688 161.90625 418.027344 161.90625 L 402.078125 161.90625 C 400.929688 161.90625 400 160.945312 400 159.753906 L 400 40.246094 C 400 39.054688 400.929688 38.09375 402.078125 38.09375 L 417.515625 38.09375 C 420.503906 38.09375 423.375 39.328125 425.496094 41.519531 L 513.039062 132.011719 L 513.039062 40.246094 C 513.039062 39.054688 513.972656 38.09375 515.121094 38.09375 L 531.246094 38.09375 C 532.394531 38.09375 533.324219 39.054688 533.324219 40.246094 Z M 533.332031 40.246094 "/>
<path style=" stroke:none;fill-rule:nonzero;fill:rgb(0%,0%,0%);fill-opacity:1;" d="M 690.476562 145.496094 L 690.476562 159.753906 C 690.476562 160.945312 689.527344 161.90625 688.351562 161.90625 L 572.78125 161.90625 C 569.410156 161.90625 566.667969 159.132812 566.667969 155.71875 L 566.667969 44.28125 C 566.667969 40.867188 569.410156 38.09375 572.78125 38.09375 L 686.59375 38.09375 C 687.773438 38.09375 688.722656 39.054688 688.722656 40.246094 L 688.722656 54.503906 C 688.722656 55.695312 687.773438 56.65625 686.59375 56.65625 L 587.464844 56.65625 L 587.464844 89.738281 L 670.863281 89.738281 C 672.039062 89.738281 672.992188 90.699219 672.992188 91.890625 L 672.992188 106.148438 C 672.992188 107.339844 672.039062 108.300781 670.863281 108.300781 L 587.464844 108.300781 L 587.464844 143.324219 L 688.351562 143.324219 C 689.527344 143.324219 690.476562 144.285156 690.476562 145.476562 Z M 690.476562 145.496094 "/>
<path style=" stroke:none;fill-rule:nonzero;fill:rgb(0%,0%,0%);fill-opacity:1;" d="M 784.128906 99.292969 L 837.6875 159.261719 C 838.589844 160.273438 837.890625 161.90625 836.5625 161.90625 L 815.839844 161.90625 C 814.761719 161.90625 813.730469 161.445312 812.996094 160.625 L 770.910156 113.800781 L 730.871094 158.179688 C 728.726562 160.5625 725.71875 161.90625 722.566406 161.90625 L 706.296875 161.90625 C 704.964844 161.90625 704.261719 160.273438 705.167969 159.261719 L 758.558594 99.472656 L 705.703125 40.757812 C 704.789062 39.746094 705.492188 38.105469 706.828125 38.105469 L 727.539062 38.105469 C 728.617188 38.105469 729.648438 38.566406 730.378906 39.375 L 771.949219 85.5 L 811.132812 41.847656 C 813.277344 39.457031 816.296875 38.09375 819.449219 38.09375 L 835.855469 38.09375 C 837.191406 38.09375 837.882812 39.738281 836.96875 40.75 Z M 784.128906 99.292969 "/>
<path style=" stroke:none;fill-rule:nonzero;fill:rgb(0%,0%,0%);fill-opacity:1;" d="M 847.316406 100 C 847.316406 58.488281 876.378906 33.332031 923.476562 33.332031 C 970.578125 33.332031 999.628906 58.488281 999.628906 100 C 999.628906 141.511719 970.566406 166.667969 923.476562 166.667969 C 876.390625 166.667969 847.316406 141.511719 847.316406 100 Z M 978.09375 100 C 978.09375 69.457031 956.738281 52.378906 923.476562 52.378906 C 890.21875 52.378906 868.6875 69.445312 868.6875 100 C 868.6875 130.554688 890.039062 147.621094 923.476562 147.621094 C 956.914062 147.621094 978.09375 130.554688 978.09375 100 Z M 978.09375 100 "/>
<path style=" stroke:none;fill-rule:nonzero;fill:rgb(0%,0%,0%);fill-opacity:1;" d="M 299.460938 5.460938 C 299.019531 4.78125 298.355469 4.320312 297.59375 4.160156 L 290.296875 2.601562 C 288.871094 2.601562 287.75 3.558594 287.570312 4.878906 L 268.722656 103.859375 C 268.359375 105.121094 266.335938 104.878906 266.433594 103.5 L 266.433594 103.460938 L 272.230469 2.820312 C 272.230469 1.378906 271.167969 0.21875 269.804688 0.101562 C 269.183594 0.0195312 268.480469 0 267.699219 0 C 266.335938 0 265.230469 1.039062 265.113281 2.398438 L 255.085938 118.679688 C 255.003906 120.140625 253.019531 120.058594 252.878906 118.738281 L 246.542969 3.898438 C 246.445312 2.679688 245.460938 1.761719 243.855469 1.761719 C 243.816406 1.761719 242.3125 2 242.3125 2 C 241.191406 2.121094 240.328125 3.121094 240.328125 4.320312 L 242.210938 127.160156 C 242.171875 128.519531 240.226562 128.679688 239.988281 127.28125 L 219.59375 11.460938 C 219.414062 10.160156 218.332031 9.21875 217.027344 9.21875 C 216.707031 9.21875 216.386719 9.28125 215.722656 9.558594 C 214.480469 10.058594 213.820312 11.199219 214.039062 12.320312 L 229.601562 133.101562 C 229.699219 134.460938 227.777344 134.839844 227.375 133.539062 L 192.363281 25.621094 C 191.964844 24.601562 191.039062 23.960938 189.976562 23.960938 C 189.457031 23.960938 188.957031 24.121094 188.554688 24.421875 C 187.832031 24.898438 187.453125 25.640625 187.550781 27.121094 L 216.105469 135.21875 C 216.386719 136.5 214.621094 137.140625 213.960938 135.921875 L 213.898438 135.800781 L 168.882812 45.941406 C 168.523438 45.21875 167.820312 44.78125 167.039062 44.78125 C 166.4375 44.78125 165.855469 45.039062 165.496094 45.460938 C 165.113281 45.820312 164.914062 46.339844 164.914062 46.878906 C 164.914062 47 165.015625 47.601562 165.054688 47.699219 L 202.851562 134.179688 C 203.433594 135.421875 201.6875 136.398438 200.867188 135.261719 L 200.746094 135.078125 L 152.703125 68.320312 C 152.320312 67.859375 151.78125 67.601562 151.21875 67.601562 C 151.058594 67.601562 150.257812 67.921875 150.117188 68 C 149.675781 68.300781 149.433594 68.78125 149.433594 69.339844 C 149.433594 69.5 149.632812 70.21875 149.734375 70.359375 L 186.128906 125.660156 C 186.871094 126.820312 185.304688 128.058594 184.304688 127.058594 C 184.304688 127.058594 70.410156 12.441406 70.351562 12.441406 C 70.351562 12.441406 70.351562 12.441406 70.351562 12.460938 C 66.339844 8.640625 61.105469 6.539062 55.613281 6.539062 C 45.96875 6.539062 37.765625 13.160156 35.660156 22.640625 L 0.0507812 192.300781 C -0.109375 193.078125 0.03125 193.878906 0.46875 194.539062 C 0.910156 195.21875 1.574219 195.679688 2.355469 195.839844 L 9.652344 197.398438 C 11.058594 197.398438 12.179688 196.441406 12.382812 195.121094 L 31.210938 96.179688 C 31.550781 94.859375 33.617188 95.101562 33.535156 96.519531 L 27.742188 197.199219 C 27.742188 198.640625 28.804688 199.800781 30.1875 199.921875 C 30.707031 200 31.308594 200 31.832031 200 C 31.910156 200 32.253906 200 32.292969 200 C 33.636719 200 34.757812 198.960938 34.878906 197.601562 L 44.90625 81.339844 C 44.984375 79.839844 47.050781 79.921875 47.152344 81.339844 L 53.445312 196.121094 C 53.546875 197.339844 54.53125 198.261719 56.132812 198.261719 C 56.175781 198.261719 57.675781 198.019531 57.675781 198.019531 C 58.800781 197.898438 59.664062 196.898438 59.664062 195.699219 L 57.757812 72.898438 C 57.757812 71.480469 59.742188 71.320312 60.003906 72.71875 L 80.394531 188.539062 C 80.578125 189.839844 81.660156 190.78125 82.960938 190.78125 C 83.285156 190.78125 83.605469 190.71875 84.265625 190.441406 C 85.488281 189.960938 86.171875 188.820312 85.949219 187.679688 L 70.371094 66.960938 C 70.210938 65.558594 72.195312 65.140625 72.617188 66.460938 L 72.617188 66.5 L 107.625 174.359375 C 108.027344 175.378906 108.949219 176.039062 110.011719 176.039062 C 110.535156 176.039062 111.035156 175.878906 111.4375 175.578125 C 112.15625 175.101562 112.539062 174.359375 112.4375 172.859375 L 83.886719 64.800781 C 83.542969 63.460938 85.367188 62.800781 86.03125 64.039062 L 131.085938 154.019531 C 131.449219 154.71875 132.148438 155.160156 132.929688 155.160156 C 133.53125 155.160156 134.113281 154.898438 134.476562 154.480469 C 134.835938 154.121094 135.058594 153.601562 135.058594 153.058594 C 135.058594 152.941406 134.957031 152.339844 134.917969 152.238281 L 97.117188 65.761719 C 96.539062 64.519531 98.28125 63.539062 99.105469 64.679688 L 99.203125 64.820312 L 147.269531 131.621094 C 147.648438 132.078125 148.191406 132.339844 148.753906 132.339844 C 148.914062 132.339844 149.714844 132.019531 149.835938 131.941406 C 150.296875 131.640625 150.535156 131.160156 150.535156 130.578125 C 150.535156 130.421875 150.335938 129.699219 150.234375 129.558594 L 113.84375 74.261719 C 113.101562 73.101562 114.664062 71.878906 115.648438 72.839844 C 224.667969 181.519531 229.519531 187.460938 229.621094 187.460938 C 229.621094 187.460938 229.621094 187.460938 229.621094 187.441406 C 233.628906 191.261719 238.863281 193.359375 244.359375 193.359375 C 253.984375 193.359375 262.183594 186.738281 264.308594 177.261719 L 299.921875 7.640625 C 300.082031 6.859375 299.941406 6.058594 299.5 5.398438 Z M 299.460938 5.460938 "/>
</g>
</svg>
